<svg width="15" height="14" viewBox="0 0 15 14" fill="none" xmlns="http://www.w3.org/2000/svg">
<path id="Path 3392" d="M10.9905 1.11531e-08C10.2797 0.000126647 9.58177 0.19348 8.96836 0.560206C8.35495 0.926932 7.84815 1.45381 7.5 2.08675C7.15177 1.45366 6.64482 0.926685 6.03121 0.55995C5.41761 0.193215 4.71948 -5.36065e-05 4.00855 1.11531e-08C2.91974 0.0600645 1.89551 0.546576 1.14893 1.35833C0.402347 2.17008 -0.00910902 3.24458 0.000153042 4.35831C0.000153042 10.0377 7.5 14 7.5 14C7.5 14 14.9998 10.0397 14.9998 4.35831C15.0091 3.24442 14.5975 2.16978 13.8507 1.35799C13.1039 0.546214 12.0794 0.0598122 10.9905 1.11531e-08Z" fill="white"/>
</svg>
